<?xml version="1.0" encoding="UTF-8"?>
<svg xmlns="http://www.w3.org/2000/svg" xmlns:xlink="http://www.w3.org/1999/xlink" width="382pt" height="300pt" viewBox="0 0 382 300" version="1.1">
<g id="surface6">
<rect x="0" y="0" width="382" height="300" style="fill:rgb(100%,100%,100%);fill-opacity:1;stroke:none;"/>
<path style="fill-rule:nonzero;fill:rgb(100%,100%,100%);fill-opacity:1;stroke-width:0.531496;stroke-linecap:round;stroke-linejoin:round;stroke:rgb(49.803922%,49.803922%,49.803922%);stroke-opacity:1;stroke-miterlimit:10;" d="M 161.875 204.492188 L 162.765625 204.835938 L 162.03125 209.195312 L 161.496094 210.050781 L 161.925781 211.160156 L 161.308594 212.246094 L 161.449219 212.867188 L 160.003906 215.035156 L 159.378906 214.675781 L 158.574219 215.757812 L 155.433594 214.089844 L 155.601562 213.507812 L 151.125 209.445312 L 149.148438 211.976562 L 148.199219 211.324219 L 147.707031 211.730469 L 145.375 210.507812 L 144.730469 209.695312 L 146.75 206.507812 L 150.796875 200.125 L 151.894531 196.203125 L 152.992188 192.277344 L 152.527344 188.269531 L 154.078125 187.160156 L 155.277344 186.46875 L 158.070312 186.101562 L 158.929688 191.417969 L 158.214844 191.984375 L 159.972656 196.277344 L 159.9375 200.605469 L 162.980469 201.992188 L 162.816406 202.511719 L 162.488281 202.378906 L 162.332031 203.226562 L 161.949219 203.234375 Z "/>
<path style="fill-rule:nonzero;fill:rgb(100%,100%,100%);fill-opacity:1;stroke-width:0.531496;stroke-linecap:round;stroke-linejoin:round;stroke:rgb(49.803922%,49.803922%,49.803922%);stroke-opacity:1;stroke-miterlimit:10;" d="M 211.535156 84.316406 L 206.824219 84.277344 L 206.828125 81.148438 L 206.835938 78.015625 L 206.839844 74.882812 L 203.484375 74.875 L 200.128906 74.871094 L 196.777344 74.863281 L 193.421875 74.855469 L 190.066406 74.851562 L 186.710938 74.84375 L 183.359375 74.835938 L 180.003906 74.832031 L 176.648438 74.824219 L 173.292969 74.820312 L 162.195312 74.878906 L 162.738281 71.59375 L 163.285156 68.304688 L 165.164062 65.535156 L 167.046875 62.761719 L 168.925781 59.988281 L 170.808594 57.210938 L 172.6875 54.429688 L 174.570312 51.648438 L 176.449219 48.863281 L 178.332031 46.074219 L 180.210938 43.285156 L 182.09375 40.488281 L 183.972656 37.695312 L 185.855469 34.894531 L 187.734375 32.09375 L 189.613281 29.289062 L 191.496094 26.484375 L 194.921875 27.347656 L 198.347656 28.214844 L 198.539062 32.757812 L 198.730469 37.296875 L 204.035156 41.429688 L 207.585938 39.851562 L 214.695312 36.695312 L 218.246094 35.113281 L 222.859375 35.769531 L 224.96875 31.78125 L 228.859375 32.070312 L 231.207031 34.367188 L 233.554688 36.65625 L 235.902344 38.949219 L 238.253906 41.238281 L 242.949219 45.808594 L 245.296875 48.089844 L 245.320312 51.308594 L 245.339844 54.519531 L 245.359375 57.726562 L 245.382812 60.933594 L 245.402344 64.132812 L 245.425781 67.332031 L 245.445312 70.527344 L 245.464844 73.714844 L 245.488281 76.902344 L 245.507812 80.089844 L 245.53125 83.269531 L 245.570312 89.621094 L 245.59375 92.789062 L 245.613281 95.957031 L 245.636719 99.121094 L 245.65625 102.28125 L 245.675781 105.4375 L 245.699219 108.589844 L 246.621094 110.230469 L 245.164062 112.277344 L 246.480469 114.996094 L 244.847656 116.78125 L 244.832031 123.015625 L 238.832031 124.523438 L 235.832031 125.28125 L 231.839844 126.121094 L 227.851562 126.964844 L 227.867188 127.480469 L 222.242188 128.683594 L 221.257812 128.015625 L 221.3125 121.765625 L 221.339844 118.632812 L 221.691406 118.042969 L 221.570312 114.589844 L 221.328125 107.667969 L 221.207031 104.203125 L 221.085938 100.734375 L 221.105469 97.628906 L 221.121094 94.519531 L 221.140625 91.40625 L 221.160156 88.289062 L 221.179688 85.167969 L 217.96875 85.101562 L 211.546875 84.960938 Z "/>
<path style="fill-rule:nonzero;fill:rgb(100%,100%,100%);fill-opacity:1;stroke-width:0.531496;stroke-linecap:round;stroke-linejoin:round;stroke:rgb(49.803922%,49.803922%,49.803922%);stroke-opacity:1;stroke-miterlimit:10;" d="M 133.652344 221.609375 L 133.410156 220.988281 L 132.796875 218.792969 L 133.675781 218.160156 L 134.480469 218.164062 L 134.539062 216.441406 L 135.367188 215.167969 L 134.804688 214.25 L 135.863281 213.222656 L 132.664062 209.503906 L 131.015625 208.914062 L 130.902344 208.054688 L 130.101562 207.011719 L 130.566406 206.667969 L 131.996094 207.378906 L 135.71875 205.050781 L 139.445312 202.722656 L 139.898438 203.332031 L 140.710938 205.160156 L 139.976562 208.527344 L 142.394531 211.019531 L 144.730469 209.695312 L 145.375 210.507812 L 147.707031 211.730469 L 148.199219 211.324219 L 149.148438 211.976562 L 151.125 209.445312 L 155.601562 213.507812 L 155.433594 214.089844 L 158.574219 215.757812 L 159.378906 214.675781 L 160.003906 215.035156 L 161.449219 212.867188 L 161.613281 213.515625 L 163.6875 215.636719 L 165.925781 215.472656 L 168.066406 213.789062 L 167.945312 215.511719 L 166.957031 217.890625 L 166.34375 222.347656 L 163.738281 223.480469 L 162.742188 222.582031 L 163.195312 219.496094 L 161.738281 219.503906 L 156.867188 222.394531 L 155.390625 225.085938 L 153.910156 227.773438 L 154.414062 233.382812 L 149.953125 235.566406 L 144.304688 231.644531 L 145.316406 229.84375 L 141.96875 226.238281 L 141.328125 227.652344 L 140.417969 227.242188 L 140.039062 227.980469 L 139.503906 227.019531 L 138.421875 226.84375 L 138.550781 223.875 L 137.890625 222.414062 L 136.6875 221.617188 L 134.53125 222.226562 Z "/>
<path style="fill-rule:nonzero;fill:rgb(100%,100%,100%);fill-opacity:1;stroke-width:0.531496;stroke-linecap:round;stroke-linejoin:round;stroke:rgb(49.803922%,49.803922%,49.803922%);stroke-opacity:1;stroke-miterlimit:10;" d="M 133.410156 158.289062 L 132.859375 154.808594 L 132.3125 151.324219 L 131.765625 147.832031 L 131.214844 144.339844 L 132.34375 140.269531 L 131.730469 138.351562 L 132.933594 136.519531 L 138.988281 138.285156 L 137.402344 135.0625 L 135.8125 131.839844 L 137.902344 129.210938 L 139.988281 126.582031 L 142.078125 123.949219 L 142.859375 127.878906 L 143.644531 131.800781 L 143.105469 131.855469 L 144.441406 138.386719 L 145.777344 144.902344 L 147.113281 151.402344 L 149.253906 151.023438 L 149.148438 150.585938 L 151.191406 150.347656 L 151.882812 153.136719 L 156.917969 152.367188 L 157.511719 155.515625 L 158.707031 161.796875 L 157.320312 162.078125 L 157.414062 163.3125 L 157.054688 163.296875 L 157.203125 164.363281 L 157.613281 164.332031 L 157.878906 166.703125 L 161.539062 166.179688 L 161.828125 167.855469 L 161.535156 167.9375 L 161.617188 168.902344 L 162.003906 168.800781 L 162.605469 171.664062 L 162.117188 171.835938 L 162.851562 176.167969 L 164.207031 175.9375 L 164.277344 176.539062 L 163.703125 177.042969 L 164.910156 178.003906 L 165.652344 179.691406 L 164.550781 181.320312 L 161.652344 180.71875 L 160.1875 183.605469 L 161.671875 184.792969 L 161.1875 186.085938 L 158.070312 186.101562 L 155.277344 186.46875 L 154.078125 187.160156 L 153.480469 185.320312 L 152.582031 185.023438 L 152.148438 183.210938 L 151.359375 183.226562 L 152.21875 181.441406 L 148.949219 180.839844 L 145.675781 180.234375 L 142.40625 179.632812 L 143.558594 178.910156 L 142.199219 175.941406 L 140.84375 172.96875 L 139.484375 169.996094 L 136.703125 171.5 L 133.921875 173 L 133.59375 167.050781 L 132.953125 163.246094 L 132.542969 163.230469 L 131.925781 158.648438 Z "/>
<path style="fill-rule:nonzero;fill:rgb(100%,100%,100%);fill-opacity:1;stroke-width:0.531496;stroke-linecap:round;stroke-linejoin:round;stroke:rgb(49.803922%,49.803922%,49.803922%);stroke-opacity:1;stroke-miterlimit:10;" d="M 226.25 147.128906 L 229.371094 146.589844 L 232.492188 146.054688 L 235.613281 145.515625 L 236.136719 148.707031 L 236.664062 151.894531 L 237.1875 155.078125 L 237.714844 158.257812 L 238.238281 161.433594 L 233.941406 162.203125 L 234.53125 165.714844 L 235.117188 169.222656 L 235.707031 172.722656 L 236.292969 176.222656 L 236.949219 176.144531 L 237.675781 180.585938 L 237.066406 180.761719 L 237.988281 186.191406 L 236.871094 191.421875 L 234.707031 191.609375 L 232.390625 186.695312 L 228.304688 185.886719 L 223.886719 188.992188 L 221.464844 187.214844 L 216.84375 190.683594 L 217.671875 196.390625 L 216.574219 197.957031 L 213.191406 195.699219 L 209.8125 193.441406 L 207.101562 194.425781 L 207.066406 189.902344 L 209.773438 185.015625 L 209.625 182.652344 L 206.699219 179.683594 L 206.691406 176.785156 L 206.683594 175.617188 L 207.71875 175.578125 L 208.867188 176.144531 L 208.839844 176.648438 L 209.675781 176.71875 L 210.640625 174.898438 L 211.90625 173.789062 L 213.207031 174.585938 L 214.859375 172.636719 L 217.851562 172.050781 L 220.847656 171.464844 L 220.167969 167.691406 L 219.488281 163.914062 L 218.804688 160.132812 L 223.417969 159.316406 L 222.738281 154.484375 L 227.191406 153.613281 L 226.722656 150.371094 Z "/>
<path style="fill-rule:nonzero;fill:rgb(100%,100%,100%);fill-opacity:1;stroke-width:0.531496;stroke-linecap:round;stroke-linejoin:round;stroke:rgb(49.803922%,49.803922%,49.803922%);stroke-opacity:1;stroke-miterlimit:10;" d="M 222.425781 197.386719 L 222.984375 191.824219 L 224.394531 190.6875 L 224.199219 189.125 L 228.5625 188.667969 L 231.328125 194.058594 L 226.09375 196.382812 L 225.496094 199.769531 Z "/>
<path style="fill-rule:nonzero;fill:rgb(100%,100%,100%);fill-opacity:1;stroke-width:0.531496;stroke-linecap:round;stroke-linejoin:round;stroke:rgb(49.803922%,49.803922%,49.803922%);stroke-opacity:1;stroke-miterlimit:10;" d="M 158.929688 191.417969 L 158.070312 186.101562 L 161.1875 186.085938 L 161.671875 184.792969 L 160.1875 183.605469 L 161.652344 180.71875 L 164.550781 181.320312 L 165.652344 179.691406 L 168.25 179.058594 L 169.328125 179.636719 L 169.574219 181.15625 L 170.257812 181.402344 L 170.996094 179.902344 L 177.582031 181.230469 L 178.464844 179.832031 L 178.546875 178.566406 L 177.082031 176.960938 L 176.722656 174.90625 L 182.199219 173.9375 L 182.816406 175.117188 L 182.429688 175.195312 L 182.40625 176.203125 L 183.925781 176.515625 L 182.875 177.90625 L 185.089844 178.277344 L 184.632812 182.785156 L 186.320312 183.105469 L 185.429688 187.609375 L 183.648438 187.308594 L 182.441406 190.5 L 181.238281 193.6875 L 180.597656 196.566406 L 179.777344 197.789062 L 175.976562 196.851562 L 175.199219 199.246094 L 175.585938 204.851562 L 172.0625 204.171875 L 171.863281 203.304688 L 168.183594 202.476562 L 167.402344 203.441406 L 166.613281 205.640625 L 162.765625 204.835938 L 161.875 204.492188 L 161.949219 203.234375 L 162.332031 203.226562 L 162.488281 202.378906 L 162.816406 202.511719 L 162.980469 201.992188 L 159.9375 200.605469 L 159.972656 196.277344 L 158.214844 191.984375 Z "/>
<path style="fill-rule:nonzero;fill:rgb(100%,100%,100%);fill-opacity:1;stroke-width:0.531496;stroke-linecap:round;stroke-linejoin:round;stroke:rgb(49.803922%,49.803922%,49.803922%);stroke-opacity:1;stroke-miterlimit:10;" d="M 189.128906 214.492188 L 187.152344 210.660156 L 187.820312 210.910156 L 189.542969 207.839844 L 188.820312 206.570312 L 188.980469 204.796875 L 187.667969 200.523438 L 185.027344 200.347656 L 184.859375 199.863281 L 183.699219 199.121094 L 183.496094 195.464844 L 183.652344 194.683594 L 184.453125 194.890625 L 184.605469 194.253906 L 185.4375 193.386719 L 187.191406 195.167969 L 190.242188 192.453125 L 192.730469 195.203125 L 195.222656 197.949219 L 198.640625 198.34375 L 199.300781 198.78125 L 198.640625 201.824219 L 197.980469 204.863281 L 197.320312 207.898438 L 194.617188 211.078125 L 191.914062 214.253906 Z "/>
<path style="fill-rule:nonzero;fill:rgb(100%,100%,100%);fill-opacity:1;stroke-width:0.531496;stroke-linecap:round;stroke-linejoin:round;stroke:rgb(49.803922%,49.803922%,49.803922%);stroke-opacity:1;stroke-miterlimit:10;" d="M 173.761719 210.914062 L 170.199219 210.09375 L 171.441406 209.007812 L 171.050781 207.632812 L 172.0625 204.171875 L 175.585938 204.851562 L 175.199219 199.246094 L 175.976562 196.851562 L 179.777344 197.789062 L 180.597656 196.566406 L 181.238281 193.6875 L 184.605469 194.253906 L 184.453125 194.890625 L 183.652344 194.683594 L 183.496094 195.464844 L 183.699219 199.121094 L 184.859375 199.863281 L 185.027344 200.347656 L 187.667969 200.523438 L 188.980469 204.796875 L 188.820312 206.570312 L 189.542969 207.839844 L 187.820312 210.910156 L 187.152344 210.660156 L 185.359375 210.183594 L 183.699219 213.769531 L 182.039062 217.347656 L 178.074219 219.542969 L 175.265625 219.160156 L 175.4375 215.839844 L 175.609375 212.515625 L 177.191406 209.742188 L 173.167969 214.710938 Z "/>
<path style="fill-rule:nonzero;fill:rgb(100%,100%,100%);fill-opacity:1;stroke-width:0.531496;stroke-linecap:round;stroke-linejoin:round;stroke:rgb(49.803922%,49.803922%,49.803922%);stroke-opacity:1;stroke-miterlimit:10;" d="M 125.925781 222.324219 L 125.8125 219.144531 L 125.699219 215.960938 L 125.472656 209.585938 L 125.246094 203.195312 L 125.132812 199.996094 L 125.019531 196.792969 L 124.894531 193.429688 L 124.769531 190.0625 L 124.519531 183.3125 L 124.394531 179.933594 L 124.269531 176.550781 L 124.070312 173.523438 L 123.867188 170.496094 L 123.667969 167.464844 L 123.46875 164.429688 L 123.070312 158.351562 L 122.671875 152.257812 L 122.46875 149.210938 L 122.269531 146.15625 L 122.070312 143.097656 L 126.859375 141.109375 L 128.410156 144.125 L 129.960938 147.136719 L 131.214844 144.339844 L 131.765625 147.832031 L 132.3125 151.324219 L 132.859375 154.808594 L 133.410156 158.289062 L 131.925781 158.648438 L 132.542969 163.230469 L 132.953125 163.246094 L 133.59375 167.050781 L 133.921875 173 L 136.703125 171.5 L 139.484375 169.996094 L 140.84375 172.96875 L 142.199219 175.941406 L 143.558594 178.910156 L 142.40625 179.632812 L 145.675781 180.234375 L 148.949219 180.839844 L 152.21875 181.441406 L 151.359375 183.226562 L 152.148438 183.210938 L 152.582031 185.023438 L 153.480469 185.320312 L 154.078125 187.160156 L 152.527344 188.269531 L 152.992188 192.277344 L 151.894531 196.203125 L 150.796875 200.125 L 146.75 206.507812 L 144.730469 209.695312 L 142.394531 211.019531 L 139.976562 208.527344 L 140.710938 205.160156 L 139.898438 203.332031 L 139.445312 202.722656 L 135.71875 205.050781 L 131.996094 207.378906 L 130.566406 206.667969 L 130.101562 207.011719 L 130.902344 208.054688 L 131.015625 208.914062 L 132.664062 209.503906 L 135.863281 213.222656 L 134.804688 214.25 L 135.367188 215.167969 L 134.539062 216.441406 L 134.480469 218.164062 L 133.675781 218.160156 L 132.796875 218.792969 L 133.410156 220.988281 L 128.6875 221.871094 L 127.527344 222.5625 Z "/>
<path style="fill-rule:nonzero;fill:rgb(100%,100%,100%);fill-opacity:1;stroke-width:0.531496;stroke-linecap:round;stroke-linejoin:round;stroke:rgb(49.803922%,49.803922%,49.803922%);stroke-opacity:1;stroke-miterlimit:10;" d="M 189.910156 169.285156 L 189.164062 165.773438 L 188.421875 162.257812 L 187.679688 158.738281 L 186.9375 155.210938 L 190.046875 154.570312 L 193.152344 153.925781 L 196.261719 153.285156 L 199.371094 152.640625 L 202.480469 152 L 205.589844 151.355469 L 204.859375 146.925781 L 208.515625 146.152344 L 207.734375 142.410156 L 206.953125 138.660156 L 206.175781 134.910156 L 205.394531 131.152344 L 201.367188 131.863281 L 201.628906 127.820312 L 201.890625 123.769531 L 206.609375 122.679688 L 206.628906 119.496094 L 206.644531 116.3125 L 206.664062 113.125 L 206.679688 109.933594 L 206.699219 106.738281 L 206.71875 103.539062 L 206.734375 100.335938 L 206.753906 97.132812 L 206.769531 93.921875 L 206.789062 90.710938 L 206.808594 87.496094 L 206.824219 84.277344 L 211.535156 84.316406 L 211.546875 84.960938 L 217.96875 85.101562 L 221.179688 85.167969 L 221.160156 88.289062 L 221.140625 91.40625 L 221.121094 94.519531 L 221.105469 97.628906 L 221.085938 100.734375 L 221.207031 104.203125 L 221.328125 107.667969 L 221.570312 114.589844 L 221.691406 118.042969 L 221.339844 118.632812 L 221.3125 121.765625 L 221.257812 128.015625 L 222.242188 128.683594 L 227.867188 127.480469 L 227.851562 126.964844 L 231.839844 126.121094 L 235.832031 125.28125 L 236.496094 128.550781 L 237.164062 131.820312 L 237.828125 135.085938 L 238.492188 138.347656 L 239.160156 141.605469 L 239.824219 144.859375 L 235.613281 145.515625 L 232.492188 146.054688 L 229.371094 146.589844 L 226.25 147.128906 L 226.722656 150.371094 L 227.191406 153.613281 L 222.738281 154.484375 L 223.417969 159.316406 L 218.804688 160.132812 L 219.488281 163.914062 L 220.167969 167.691406 L 220.847656 171.464844 L 217.851562 172.050781 L 214.859375 172.636719 L 213.207031 174.585938 L 211.90625 173.789062 L 210.640625 174.898438 L 209.675781 176.71875 L 208.839844 176.648438 L 208.867188 176.144531 L 207.71875 175.578125 L 206.683594 175.617188 L 206.386719 174.855469 L 205.230469 174.890625 L 204.144531 175.480469 L 203.9375 175.253906 L 200.417969 176.109375 L 196.894531 176.964844 L 193.375 177.824219 L 192.300781 173.398438 L 190.171875 173.675781 L 189.535156 169.53125 Z "/>
<path style="fill-rule:nonzero;fill:rgb(100%,100%,100%);fill-opacity:1;stroke-width:0.531496;stroke-linecap:round;stroke-linejoin:round;stroke:rgb(49.803922%,49.803922%,49.803922%);stroke-opacity:1;stroke-miterlimit:10;" d="M 172.855469 107.207031 L 172.898438 103.984375 L 172.945312 100.757812 L 172.988281 97.527344 L 173.074219 91.058594 L 173.117188 87.816406 L 173.164062 84.570312 L 173.207031 81.324219 L 173.25 78.074219 L 173.292969 74.820312 L 176.648438 74.824219 L 180.003906 74.832031 L 183.359375 74.835938 L 186.710938 74.84375 L 190.066406 74.851562 L 193.421875 74.855469 L 196.777344 74.863281 L 200.128906 74.871094 L 203.484375 74.875 L 206.839844 74.882812 L 206.835938 78.015625 L 206.828125 81.148438 L 206.824219 84.277344 L 206.808594 87.496094 L 206.789062 90.710938 L 206.769531 93.921875 L 206.753906 97.132812 L 206.734375 100.335938 L 206.71875 103.539062 L 206.699219 106.738281 L 206.679688 109.933594 L 206.664062 113.125 L 206.644531 116.3125 L 206.628906 119.496094 L 206.609375 122.679688 L 201.890625 123.769531 L 201.628906 127.820312 L 201.367188 131.863281 L 205.394531 131.152344 L 206.175781 134.910156 L 206.953125 138.660156 L 207.734375 142.410156 L 208.515625 146.152344 L 204.859375 146.925781 L 205.589844 151.355469 L 202.480469 152 L 199.371094 152.640625 L 196.261719 153.285156 L 193.152344 153.925781 L 190.046875 154.570312 L 186.9375 155.210938 L 181.644531 156.167969 L 181.800781 157.457031 L 177.414062 158.386719 L 176.132812 153.609375 L 175.84375 153.644531 L 175.121094 150.292969 L 174.402344 146.9375 L 173.683594 143.578125 L 174.03125 143.449219 L 173.28125 140.21875 L 172.535156 136.980469 L 171.785156 133.742188 L 171.039062 130.5 L 173.625 128.222656 L 173.523438 126.652344 L 174.097656 126.363281 L 173.542969 125.136719 L 173.988281 124.9375 L 174.039062 124.351562 L 172.464844 124.183594 L 172.605469 123.234375 L 171.003906 122.453125 L 170.40625 120.539062 L 169.753906 119.875 L 170.523438 119.589844 L 170.425781 118.972656 L 171.011719 117.84375 L 171.503906 118.871094 L 172.945312 118.886719 L 172.796875 117.800781 L 173.613281 115.925781 L 173.214844 115.070312 L 173.828125 114.460938 L 173.167969 112.316406 L 173.742188 112.046875 L 174.863281 113.746094 L 175.824219 113.050781 L 175.191406 110.023438 L 174.554688 106.988281 Z "/>
<path style="fill-rule:nonzero;fill:rgb(100%,100%,100%);fill-opacity:1;stroke-width:0.531496;stroke-linecap:round;stroke-linejoin:round;stroke:rgb(49.803922%,49.803922%,49.803922%);stroke-opacity:1;stroke-miterlimit:10;" d="M 168.472656 219.671875 L 166.957031 217.890625 L 167.945312 215.511719 L 168.066406 213.789062 L 165.925781 215.472656 L 163.6875 215.636719 L 161.613281 213.515625 L 161.449219 212.867188 L 161.308594 212.246094 L 161.925781 211.160156 L 161.496094 210.050781 L 162.03125 209.195312 L 162.765625 204.835938 L 166.613281 205.640625 L 167.402344 203.441406 L 168.183594 202.476562 L 171.863281 203.304688 L 172.0625 204.171875 L 171.050781 207.632812 L 167.960938 211.488281 L 168.597656 214.65625 L 169.238281 217.820312 L 169.878906 220.980469 L 170.515625 224.140625 L 169.0625 225.59375 L 168.265625 224.746094 Z "/>
<path style="fill-rule:nonzero;fill:rgb(100%,100%,100%);fill-opacity:1;stroke-width:0.531496;stroke-linecap:round;stroke-linejoin:round;stroke:rgb(49.803922%,49.803922%,49.803922%);stroke-opacity:1;stroke-miterlimit:10;" d="M 171.035156 222.316406 L 170.824219 219.265625 L 170.617188 216.210938 L 170.40625 213.15625 L 170.199219 210.09375 L 173.761719 210.914062 L 173.167969 214.710938 L 172.125 217.027344 L 173.015625 222.667969 L 172.054688 223.847656 Z "/>
<path style="fill-rule:nonzero;fill:rgb(100%,100%,100%);fill-opacity:1;stroke-width:0.531496;stroke-linecap:round;stroke-linejoin:round;stroke:rgb(49.803922%,49.803922%,49.803922%);stroke-opacity:1;stroke-miterlimit:10;" d="M 143.644531 131.800781 L 142.859375 127.878906 L 142.078125 123.949219 L 144.992188 122.308594 L 147.90625 120.664062 L 147.164062 117.007812 L 150.199219 114.09375 L 153.230469 111.175781 L 153.472656 108.722656 L 151.125 107.421875 L 152.257812 102.882812 L 151.328125 102.15625 L 154.152344 98.339844 L 152.125 95.488281 L 153.855469 91.582031 L 155.582031 87.671875 L 160.980469 82.726562 L 161.589844 78.804688 L 162.195312 74.878906 L 173.292969 74.820312 L 173.25 78.074219 L 173.207031 81.324219 L 173.164062 84.570312 L 173.117188 87.816406 L 173.074219 91.058594 L 172.988281 97.527344 L 172.945312 100.757812 L 172.898438 103.984375 L 172.855469 107.207031 L 174.554688 106.988281 L 175.191406 110.023438 L 175.824219 113.050781 L 174.863281 113.746094 L 173.742188 112.046875 L 173.167969 112.316406 L 173.828125 114.460938 L 173.214844 115.070312 L 173.613281 115.925781 L 172.796875 117.800781 L 172.945312 118.886719 L 171.503906 118.871094 L 171.011719 117.84375 L 170.425781 118.972656 L 170.523438 119.589844 L 169.753906 119.875 L 170.40625 120.539062 L 171.003906 122.453125 L 172.605469 123.234375 L 172.464844 124.183594 L 174.039062 124.351562 L 173.988281 124.9375 L 173.542969 125.136719 L 174.097656 126.363281 L 173.523438 126.652344 L 173.625 128.222656 L 171.039062 130.5 L 171.785156 133.742188 L 172.535156 136.980469 L 173.28125 140.21875 L 174.03125 143.449219 L 173.683594 143.578125 L 174.402344 146.9375 L 175.121094 150.292969 L 175.84375 153.644531 L 176.132812 153.609375 L 177.414062 158.386719 L 181.800781 157.457031 L 181.644531 156.167969 L 186.9375 155.210938 L 187.679688 158.738281 L 188.421875 162.257812 L 189.164062 165.773438 L 189.910156 169.285156 L 189.535156 169.53125 L 190.171875 173.675781 L 187.992188 174 L 187.21875 172.0625 L 185.796875 172.160156 L 185.316406 172.59375 L 185.046875 174.746094 L 182.816406 175.117188 L 182.199219 173.9375 L 176.722656 174.90625 L 177.082031 176.960938 L 178.546875 178.566406 L 178.464844 179.832031 L 177.582031 181.230469 L 170.996094 179.902344 L 170.257812 181.402344 L 169.574219 181.15625 L 169.328125 179.636719 L 168.25 179.058594 L 165.652344 179.691406 L 164.910156 178.003906 L 163.703125 177.042969 L 164.277344 176.539062 L 164.207031 175.9375 L 162.851562 176.167969 L 162.117188 171.835938 L 162.605469 171.664062 L 162.003906 168.800781 L 161.617188 168.902344 L 161.535156 167.9375 L 161.828125 167.855469 L 161.539062 166.179688 L 157.878906 166.703125 L 157.613281 164.332031 L 157.203125 164.363281 L 157.054688 163.296875 L 157.414062 163.3125 L 157.320312 162.078125 L 158.707031 161.796875 L 157.511719 155.515625 L 156.917969 152.367188 L 151.882812 153.136719 L 151.191406 150.347656 L 149.148438 150.585938 L 149.253906 151.023438 L 147.113281 151.402344 L 145.777344 144.902344 L 144.441406 138.386719 L 143.105469 131.855469 Z "/>
<path style="fill-rule:nonzero;fill:rgb(100%,100%,100%);fill-opacity:1;stroke-width:0.531496;stroke-linecap:round;stroke-linejoin:round;stroke:rgb(49.803922%,49.803922%,49.803922%);stroke-opacity:1;stroke-miterlimit:10;" d="M 185.4375 193.386719 L 184.605469 194.253906 L 181.238281 193.6875 L 182.441406 190.5 L 183.648438 187.308594 L 185.429688 187.609375 L 186.320312 183.105469 L 184.632812 182.785156 L 185.089844 178.277344 L 182.875 177.90625 L 183.925781 176.515625 L 182.40625 176.203125 L 182.429688 175.195312 L 182.816406 175.117188 L 185.046875 174.746094 L 185.316406 172.59375 L 185.796875 172.160156 L 187.21875 172.0625 L 187.992188 174 L 190.171875 173.675781 L 192.300781 173.398438 L 193.375 177.824219 L 196.894531 176.964844 L 200.417969 176.109375 L 203.9375 175.253906 L 204.144531 175.480469 L 205.230469 174.890625 L 206.386719 174.855469 L 206.683594 175.617188 L 206.691406 176.785156 L 205.316406 179.574219 L 207.285156 181.742188 L 207.144531 185.679688 L 201.628906 189.046875 L 201.148438 193.210938 L 200.664062 197.371094 L 199.300781 198.78125 L 198.640625 198.34375 L 195.222656 197.949219 L 192.730469 195.203125 L 190.242188 192.453125 L 187.191406 195.167969 Z "/>
<path style="fill-rule:nonzero;fill:rgb(100%,100%,100%);fill-opacity:1;stroke-width:0.531496;stroke-linecap:round;stroke-linejoin:round;stroke:rgb(49.803922%,49.803922%,49.803922%);stroke-opacity:1;stroke-miterlimit:10;" d="M 268.664062 150.804688 L 269.234375 152.621094 L 270.296875 155.496094 L 272.421875 161.230469 L 269.382812 164.117188 L 276.015625 168.125 L 274.578125 170.652344 L 272.179688 172.878906 L 269.777344 175.105469 L 267.378906 177.328125 L 263.335938 177.339844 L 260.34375 175.347656 L 256.933594 177.796875 L 253.523438 180.238281 L 251.734375 183.289062 L 248.136719 182.925781 L 244.542969 182.566406 L 242.773438 183.503906 L 241.222656 187.890625 L 238.667969 186.90625 L 238.851562 185.117188 L 237.988281 186.191406 L 237.066406 180.761719 L 237.675781 180.585938 L 236.949219 176.144531 L 236.292969 176.222656 L 235.707031 172.722656 L 235.117188 169.222656 L 234.53125 165.714844 L 233.941406 162.203125 L 238.238281 161.433594 L 237.714844 158.257812 L 237.1875 155.078125 L 236.664062 151.894531 L 236.136719 148.707031 L 235.613281 145.515625 L 239.824219 144.859375 L 239.160156 141.605469 L 238.492188 138.347656 L 237.828125 135.085938 L 237.164062 131.820312 L 236.496094 128.550781 L 235.832031 125.28125 L 238.832031 124.523438 L 244.832031 123.015625 L 246.71875 124.023438 L 248.027344 122.84375 L 251.871094 126.914062 L 255.160156 127.25 L 258.445312 127.589844 L 259.3125 132.339844 L 256.023438 133.285156 L 257.621094 136.214844 L 259.222656 139.144531 L 257 144.226562 L 258.441406 149.039062 L 261.949219 152.609375 L 264.621094 149.398438 Z "/>
<path style="fill-rule:nonzero;fill:rgb(100%,100%,100%);fill-opacity:1;stroke-width:0.531496;stroke-linecap:round;stroke-linejoin:round;stroke:rgb(49.803922%,49.803922%,49.803922%);stroke-opacity:1;stroke-miterlimit:10;" d="M 126.863281 236.519531 L 126.679688 235.714844 L 127.226562 234.839844 L 126.96875 234.058594 L 126.320312 233.660156 L 126.1875 229.886719 L 126.054688 226.105469 L 125.925781 222.324219 L 127.527344 222.5625 L 128.6875 221.871094 L 133.410156 220.988281 L 133.652344 221.609375 L 134.53125 222.226562 L 136.6875 221.617188 L 137.890625 222.414062 L 138.550781 223.875 L 138.421875 226.84375 L 139.503906 227.019531 L 140.039062 227.980469 L 140.417969 227.242188 L 141.328125 227.652344 L 141.96875 226.238281 L 145.316406 229.84375 L 144.304688 231.644531 L 149.953125 235.566406 L 149.042969 240.953125 L 145.640625 245.113281 L 142.578125 245.820312 L 141.394531 248.960938 L 140.207031 252.101562 L 137.839844 258.367188 L 132.121094 256.789062 L 131.675781 254.878906 L 132.324219 250.980469 L 129.039062 248.628906 L 128.863281 247.546875 L 126.476562 244.242188 L 126.125 242.710938 L 126.78125 240.550781 L 126.433594 238.898438 Z "/>
</g>
</svg>
